<?xml version="1.0" encoding="UTF-8" standalone="no"?>
<!-- Creator: CorelDRAW 2021 (64-Bit) -->

<svg
   xml:space="preserve"
   width="512px"
   height="511px"
   version="1.1"
   shape-rendering="geometricPrecision"
   text-rendering="geometricPrecision"
   image-rendering="optimizeQuality"
   fill-rule="evenodd"
   clip-rule="evenodd"
   viewBox="0 0 513.89 512.41"
   id="svg6"
   sodipodi:docname="16S.svg"
   inkscape:version="1.1.2 (0a00cf5339, 2022-02-04)"
   xmlns:inkscape="http://www.inkscape.org/namespaces/inkscape"
   xmlns:sodipodi="http://sodipodi.sourceforge.net/DTD/sodipodi-0.dtd"
   xmlns="http://www.w3.org/2000/svg"
   xmlns:svg="http://www.w3.org/2000/svg"><defs
   id="defs10"><rect
     x="64.64048"
     y="233.38615"
     width="406.21439"
     height="261.96405"
     id="rect2879" /></defs><sodipodi:namedview
   id="namedview8"
   pagecolor="#ffffff"
   bordercolor="#999999"
   borderopacity="1"
   inkscape:pageshadow="0"
   inkscape:pageopacity="0"
   inkscape:pagecheckerboard="0"
   showgrid="false"
   inkscape:zoom="1.4696673"
   inkscape:cx="246.99468"
   inkscape:cy="300.06791"
   inkscape:window-width="2504"
   inkscape:window-height="1305"
   inkscape:window-x="0"
   inkscape:window-y="0"
   inkscape:window-maximized="1"
   inkscape:current-layer="Layer_x0020_1" />
 <g
   id="Layer_x0020_1"
   inkscape:label="Layer 1">
  <metadata
   id="CorelCorpID_0Corel-Layer" />
  <path
   fill="#000000"
   fill-rule="nonzero"
   d="M 7.1213008,181.92414 C 32.230625,178.10835 50.37558,170.18136 66.374726,158.32956 c 11.059824,-8.1832 21.350746,-18.38129 32.279215,-30.4464 l 5.600099,6.12277 0.0326,-0.033 c 3.56526,4.05951 7.37486,8.05978 11.03197,12.0532 l 0.34279,0.36478 c -11.34113,12.41552 -22.255144,23.08298 -34.318542,32.01311 -19.180768,14.19832 -40.690317,23.66344 -70.189482,28.148 z M 56.503132,68.982329 57.554205,147.67752 38.60838,160.12086 37.251893,58.558999 c -9.735474,-4.26129 -20.217331,-7.36453 -31.699219,-8.95907 l 2.9769018,-24.61687 c 57.6018232,7.99286 91.4379952,45.01469 125.3345942,82.096271 3.82531,4.18577 7.65063,8.37155 10.74914,11.70828 13.54309,14.56102 27.45592,28.53307 43.09251,39.633 l -0.93729,-70.176501 18.94565,-12.45659 1.265,94.215641 c 12.58381,6.22647 26.57363,10.58718 42.62748,12.25513 L 247.83632,50.205369 c -24.87516,1.01416 -44.51464,9.63436 -61.7336,22.41158 -11.9779,8.88391 -22.98641,19.91552 -33.81666,31.894681 l -6.51432,-7.117828 c -0.35014,-0.42448 -0.71992,-0.82915 -1.1227,-1.22721 -3.11264,-3.403023 -6.2186,-6.799393 -9.35083,-10.182593 11.23619,-12.33618 22.84834,-23.80404 35.83638,-33.4415 21.41705,-15.89719 46.09817,-26.47681 77.87317,-27.22182 33.91395,-0.80127 60.82585,7.83232 83.8849,21.62664 18.32431,10.95841 33.86718,24.95951 48.4826,39.95278 -3.21691,3.67127 -6.49176,7.468343 -9.85755,11.397753 -2.11335,2.474068 -4.22031,4.928288 -6.32747,7.369228 -11.06376,-11.457058 -22.5359,-22.245831 -35.14228,-31.148361 l 0.95746,71.686801 -18.94583,12.44333 -1.27773,-95.666321 c -12.89668,-6.33956 -27.27781,-10.734 -43.82682,-12.27687 l 1.76629,132.245031 c 25.56112,-0.74153 45.62352,-9.44053 63.17053,-22.45573 18.48509,-13.70921 34.68247,-32.54245 51.42681,-52.09016 18.9034,-22.068121 34.75578,-39.948011 53.33961,-53.703481 19.17423,-14.1917 40.69035,-23.66343 70.1895,-28.14798 l 4.01885,24.62785 c -25.10263,3.82242 -43.24758,11.7494 -59.24691,23.58794 -16.583,12.28144 -31.46256,29.096391 -49.30288,49.914181 -17.7032,20.66571 -34.83353,40.57718 -55.45685,55.88608 -21.42377,15.89056 -46.09164,26.47017 -77.87317,27.22181 -33.91398,0.8013 -60.82587,-7.83232 -83.8849,-21.62662 -22.5916,-13.51538 -40.95865,-31.64105 -58.5613,-50.56706 -4.16717,-4.48438 -7.56212,-8.19255 -10.94384,-11.9007 C 97.149311,103.51755 78.721998,83.358199 56.503114,68.982299 Z M 459.62676,162.90123 458.6118,86.908699 477.55763,74.465369 478.88332,173.722 c 10.25117,4.67942 21.34656,8.08832 33.56512,9.78339 l -2.98344,24.62348 c -46.65769,-6.48531 -77.71669,-31.99021 -105.84358,-61.16022 3.49711,-4.02193 6.98038,-8.08362 10.49637,-12.17838 1.93067,-2.2624 3.82901,-4.46523 5.70138,-6.62833 12.38842,12.92306 25.29614,25.05205 39.80759,34.73929 z"
   id="path41433"
   style="fill:#7b2401;fill-opacity:1;stroke-width:0.936832" />
 <g
   aria-label="16S"
   transform="matrix(1.2708428,0,0,1.4559659,-74.451607,-154.45322)"
   id="text2877"
   style="font-size:215.433px;line-height:1.25;white-space:pre;shape-inside:url(#rect2879)"><path
     d="m 80.314217,423.99443 v -21.98511 h 40.919643 v -93.72597 q -4.10248,8.62573 -16.40993,14.51648 -12.202261,5.89074 -25.666824,5.89074 v -22.51106 q 14.621674,0 26.192784,-6.41671 11.57111,-6.4167 17.46185,-17.67223 h 27.98105 v 119.91875 h 33.97698 v 21.98511 z"
     style="font-weight:bold;font-family:'Liberation Mono';-inkscape-font-specification:'Liberation Mono Bold'"
     id="path39505" /><path
     d="m 311.21042,377.07885 q 0,22.82664 -13.35937,35.97562 -13.35937,13.0438 -36.50158,13.0438 -25.77202,0 -40.07811,-19.25012 -14.20091,-19.35531 -14.20091,-53.54267 0,-37.23793 14.20091,-55.33094 14.30609,-18.093 40.81445,-18.093 18.82935,0 29.66411,8.31016 10.93996,8.31016 15.46321,25.77201 l -27.87585,3.8921 q -3.99729,-14.62167 -17.88262,-14.62167 -11.99188,0 -18.72416,11.46591 -6.73228,11.36073 -6.73228,33.34583 4.73364,-7.88939 13.14899,-12.09706 8.41535,-4.20768 19.03973,-4.20768 19.4605,0 31.24199,12.30745 11.78149,12.20226 11.78149,33.03026 z m -29.66411,0.84153 q 0,-11.46592 -5.89075,-17.88262 -5.78555,-6.5219 -15.98916,-6.5219 -9.46727,0 -15.5684,5.89075 -5.99594,5.78555 -5.99594,15.35801 0,11.88669 6.20632,20.09166 6.20632,8.20496 16.09436,8.20496 9.78285,0 15.46321,-6.73228 5.68036,-6.73228 5.68036,-18.40858 z"
     style="font-weight:bold;font-family:'Liberation Mono';-inkscape-font-specification:'Liberation Mono Bold'"
     id="path39507" /><path
     d="m 445.75086,382.8644 q 0,20.19684 -15.46321,31.76795 -15.35802,11.46592 -42.8131,11.46592 -24.7201,0 -40.2885,-10.414 -15.5684,-10.414 -19.98646,-30.29526 l 29.97969,-3.8921 q 2.41942,9.88803 10.09842,15.67359 7.67901,5.68036 21.03838,5.68036 13.88533,0 20.51242,-4.41806 6.73228,-4.41806 6.73228,-13.78014 0,-6.94266 -5.89074,-11.6763 -5.89075,-4.83883 -17.14628,-7.57381 -22.61626,-5.46998 -31.97834,-9.46727 -9.25688,-4.10249 -14.83205,-9.1517 -5.57517,-5.04921 -8.62574,-11.78149 -2.94537,-6.83747 -2.94537,-15.25283 0,-18.40858 14.72686,-29.13815 14.83206,-10.72957 39.0262,-10.72957 23.56298,0 36.81716,9.36207 13.25418,9.25689 17.14628,28.82258 l -30.08488,3.05057 q -4.62845,-19.25012 -24.50972,-19.25012 -11.15034,0 -17.04108,4.20768 -5.89075,4.10248 -5.89075,11.88668 0,5.1544 2.84018,8.62574 2.84018,3.36614 7.67901,5.78555 4.94402,2.31422 19.98646,6.20632 19.77608,4.83883 30.40046,10.83477 10.62438,5.89074 15.5684,14.3061 4.94402,8.41535 4.94402,19.14492 z"
     style="font-weight:bold;font-family:'Liberation Mono';-inkscape-font-specification:'Liberation Mono Bold'"
     id="path39509" /></g></g>
</svg>
