<?xml version="1.0" encoding="iso-8859-1"?>
<!-- Generator: Adobe Illustrator 18.1.1, SVG Export Plug-In . SVG Version: 6.00 Build 0)  -->
<svg version="1.1" id="Capa_1" xmlns="http://www.w3.org/2000/svg" xmlns:xlink="http://www.w3.org/1999/xlink" x="0px" y="0px"
	 viewBox="0 0 15.273 15.273" style="enable-background:new 0 0 15.273 15.273;" xml:space="preserve">
<g>
	<path style="fill:#030104;" d="M0,1.803h0.897V13.47H0V1.803z M1.446,13.47h0.505V1.803H1.446V13.47z M2.315,13.47h0.504V1.803
		H2.315V13.47z M3.482,13.47h1.104V1.803H3.482V13.47z M5.47,13.47h0.552V1.803H5.47V13.47z M6.878,13.47h2.288V1.803H6.878V13.47z
		 M12.84,13.47h0.752V1.803H12.84V13.47z M14.248,1.803V13.47h1.025V1.803H14.248z M10.084,13.47h0.492V1.803h-0.492V13.47z
		 M11.281,13.47h0.492V1.803h-0.492V13.47z"/>
</g>
<g>
</g>
<g>
</g>
<g>
</g>
<g>
</g>
<g>
</g>
<g>
</g>
<g>
</g>
<g>
</g>
<g>
</g>
<g>
</g>
<g>
</g>
<g>
</g>
<g>
</g>
<g>
</g>
<g>
</g>
</svg>
