<?xml version="1.0" encoding="UTF-8" standalone="no"?>
<!-- Creator: CorelDRAW 2021 (64-Bit) -->

<svg
   xml:space="preserve"
   width="512px"
   height="511px"
   version="1.1"
   shape-rendering="geometricPrecision"
   text-rendering="geometricPrecision"
   image-rendering="optimizeQuality"
   fill-rule="evenodd"
   clip-rule="evenodd"
   viewBox="0 0 513.89 512.41"
   id="svg6"
   sodipodi:docname="contam.svg"
   inkscape:version="1.1.2 (0a00cf5339, 2022-02-04)"
   xmlns:inkscape="http://www.inkscape.org/namespaces/inkscape"
   xmlns:sodipodi="http://sodipodi.sourceforge.net/DTD/sodipodi-0.dtd"
   xmlns="http://www.w3.org/2000/svg"
   xmlns:svg="http://www.w3.org/2000/svg"><defs
   id="defs10" /><sodipodi:namedview
   id="namedview8"
   pagecolor="#ffffff"
   bordercolor="#999999"
   borderopacity="1"
   inkscape:pageshadow="0"
   inkscape:pageopacity="0"
   inkscape:pagecheckerboard="0"
   showgrid="false"
   inkscape:zoom="1.4696673"
   inkscape:cx="251.41744"
   inkscape:cy="235.08722"
   inkscape:window-width="1866"
   inkscape:window-height="1016"
   inkscape:window-x="54"
   inkscape:window-y="27"
   inkscape:window-maximized="1"
   inkscape:current-layer="Layer_x0020_1" />
 <g
   id="Layer_x0020_1"
   inkscape:label="Layer 1">
  <metadata
   id="CorelCorpID_0Corel-Layer" />
  <ellipse
   style="fill:none;stroke:#c72c26;stroke-width:48.2213;stroke-linecap:round;stroke-linejoin:round;stroke-miterlimit:4;stroke-dasharray:none;stroke-opacity:1;paint-order:stroke fill markers"
   id="path1040"
   cx="258.69003"
   cy="256.58362"
   rx="226.45953"
   ry="224.41931" /><path
   fill="#000000"
   fill-rule="nonzero"
   d="m 129.21464,475.32342 c 15.17707,-20.36406 22.51078,-38.75681 25.5594,-58.43278 2.11423,-13.59465 2.26525,-28.08193 1.55735,-44.3453 l 8.287,0.41843 v -0.0464 c 5.38937,0.38126 10.91089,0.54862 16.31914,0.8183 l 0.50023,0.0185 c 0.6607,16.80268 0.39643,32.06179 -1.90657,46.89314 -3.66215,23.58141 -12.30777,45.43324 -30.13707,69.35871 z m -44.266507,-115.04301 56.064597,55.23403 -4.72867,22.16801 -72.355439,-71.28353 c -9.919847,3.81244 -19.556541,8.97321 -28.844012,15.91001 L 19.898088,362.70735 c 46.588362,-34.80489 96.678392,-32.25706 146.853402,-29.70921 5.66309,0.28826 11.32619,0.57652 15.87552,0.77178 19.86802,0.83688 39.58502,0.99495 58.50917,-2.10148 l -49.99565,-49.255 4.71924,-22.17731 67.1265,66.12276 c 13.32714,-4.41686 26.34282,-11.14909 38.93376,-21.24743 l -94.08281,-92.67974 c -16.97986,18.20677 -24.88929,38.14311 -28.15501,59.33474 -2.27468,14.73838 -2.35019,30.32292 -1.63285,46.45612 l -9.6367,-0.48354 c -0.54742,-0.0558 -1.09488,-0.0837 -1.66117,-0.0837 -4.60598,-0.23247 -9.20253,-0.46492 -13.80851,-0.66952 -0.67957,-16.67248 -0.48137,-32.99163 1.98209,-48.97603 4.05855,-26.36169 14.17658,-51.23561 36.25322,-74.10103 23.55846,-24.40896 48.76864,-37.18533 74.86606,-43.5828 20.73635,-5.08637 41.63315,-6.05344 62.56772,-5.66288 0.29257,4.87249 0.63236,9.87518 1.00049,15.03592 0.23595,3.24524 0.46249,6.47188 0.67955,9.68921 -15.92271,-0.37195 -31.66612,0.0185 -46.89039,2.54784 l 51.07163,50.31504 -4.72868,22.168 -68.15529,-67.14562 c -13.62916,4.55635 -26.94688,11.53964 -39.80208,22.07502 l 94.21496,92.81922 c 17.6594,-18.49503 25.81425,-38.78471 29.14602,-60.3762 3.51115,-22.74451 1.79332,-47.52545 -0.0377,-73.19904 -2.06702,-28.98393 -3.3601,-52.84428 0.18877,-75.691097 3.66215,-23.572105 12.3078,-45.433252 30.1371,-69.358704 l 20.17004,14.691883 c -15.16765,20.364068 -22.50136,38.756811 -25.55943,58.423473 -3.16189,20.391965 -1.92546,42.811035 0.0188,70.158385 1.93489,27.14279 3.74707,53.34643 -0.16046,78.73176 -4.06799,26.3617 -14.1766,51.2263 -36.25323,74.10102 -23.55845,24.409 -48.76865,37.18535 -74.86605,43.58282 -25.56886,6.26729 -51.37367,6.2859 -77.19737,5.19794 -6.11614,-0.26035 -11.13742,-0.51142 -16.14926,-0.77178 -27.30554,-1.3855 -54.58274,-2.77101 -80.491392,2.62223 z M 437.69263,143.71463 383.55349,90.377507 388.28217,68.209505 458.9953,137.87506 c 10.58055,-3.87754 20.86849,-9.25217 30.75059,-16.6353 l 15.18651,19.61088 c -37.74452,28.18422 -77.76368,31.87579 -118.27366,30.89945 -0.33977,-5.31886 -0.71732,-10.65627 -1.09485,-16.0402 -0.21709,-2.96628 -0.41531,-5.86746 -0.60407,-8.72213 17.89538,0.48351 35.60195,0.0372 52.73281,-3.27313 z"
   id="path3"
   style="stroke-width:0.936832" />
 <path
   style="fill:none;stroke:#c91a22;stroke-width:49.18087891;stroke-linecap:butt;stroke-linejoin:miter;stroke-opacity:1;stroke-miterlimit:4;stroke-dasharray:none"
   d="M 110.57253,92.298253 C 406.48022,427.69259 406.48022,427.69259 406.48022,427.69259"
   id="path1779" /></g>
</svg>
