<?xml version="1.0" encoding="UTF-8" standalone="no"?>
<!-- Created with Inkscape (http://www.inkscape.org/) -->

<svg
   width="512mm"
   height="512mm"
   viewBox="0 0 512 512"
   version="1.1"
   id="svg5"
   inkscape:version="1.1.2 (0a00cf5339, 2022-02-04)"
   sodipodi:docname="mbovis.svg"
   inkscape:export-filename="/home/farrell/gitprojects/snipgenie/svg/bar.png"
   inkscape:export-xdpi="25.4"
   inkscape:export-ydpi="25.4"
   xmlns:inkscape="http://www.inkscape.org/namespaces/inkscape"
   xmlns:sodipodi="http://sodipodi.sourceforge.net/DTD/sodipodi-0.dtd"
   xmlns="http://www.w3.org/2000/svg"
   xmlns:svg="http://www.w3.org/2000/svg">
  <sodipodi:namedview
     id="namedview7"
     pagecolor="#ffffff"
     bordercolor="#999999"
     borderopacity="1"
     inkscape:pageshadow="0"
     inkscape:pageopacity="0"
     inkscape:pagecheckerboard="0"
     inkscape:document-units="mm"
     showgrid="false"
     width="209mm"
     inkscape:zoom="0.32382505"
     inkscape:cx="220.79824"
     inkscape:cy="1224.4266"
     inkscape:window-width="2560"
     inkscape:window-height="1300"
     inkscape:window-x="0"
     inkscape:window-y="0"
     inkscape:window-maximized="1"
     inkscape:current-layer="layer1" />
  <defs
     id="defs2">
    <inkscape:path-effect
       effect="simplify"
       id="path-effect6436"
       is_visible="true"
       lpeversion="1"
       steps="1"
       threshold="0.000408163"
       smooth_angles="360"
       helper_size="0"
       simplify_individual_paths="false"
       simplify_just_coalesce="false" />
    <inkscape:path-effect
       effect="simplify"
       id="path-effect6432"
       is_visible="true"
       lpeversion="1"
       steps="1"
       threshold="0.000408163"
       smooth_angles="360"
       helper_size="0"
       simplify_individual_paths="false"
       simplify_just_coalesce="false" />
    <inkscape:path-effect
       effect="simplify"
       id="path-effect4547"
       is_visible="true"
       lpeversion="1"
       steps="1"
       threshold="0.000408163"
       smooth_angles="360"
       helper_size="0"
       simplify_individual_paths="false"
       simplify_just_coalesce="false" />
    <inkscape:path-effect
       effect="simplify"
       id="path-effect3553"
       is_visible="true"
       lpeversion="1"
       steps="1"
       threshold="0.000408163"
       smooth_angles="360"
       helper_size="0"
       simplify_individual_paths="false"
       simplify_just_coalesce="false" />
    <inkscape:path-effect
       effect="simplify"
       id="path-effect3549"
       is_visible="true"
       lpeversion="1"
       steps="1"
       threshold="0.000408163"
       smooth_angles="360"
       helper_size="0"
       simplify_individual_paths="false"
       simplify_just_coalesce="false" />
    <inkscape:path-effect
       effect="simplify"
       id="path-effect2739"
       is_visible="true"
       lpeversion="1"
       steps="1"
       threshold="0.000408163"
       smooth_angles="360"
       helper_size="0"
       simplify_individual_paths="false"
       simplify_just_coalesce="false" />
    <inkscape:path-effect
       effect="simplify"
       id="path-effect2318"
       is_visible="true"
       lpeversion="1"
       steps="1"
       threshold="0.000408163"
       smooth_angles="360"
       helper_size="0"
       simplify_individual_paths="false"
       simplify_just_coalesce="false" />
    <inkscape:path-effect
       effect="simplify"
       id="path-effect2030"
       is_visible="true"
       lpeversion="1"
       steps="1"
       threshold="0.000408163"
       smooth_angles="360"
       helper_size="0"
       simplify_individual_paths="false"
       simplify_just_coalesce="false" />
    <inkscape:path-effect
       effect="simplify"
       id="path-effect2026"
       is_visible="true"
       lpeversion="1"
       steps="1"
       threshold="0.000408163"
       smooth_angles="360"
       helper_size="0"
       simplify_individual_paths="false"
       simplify_just_coalesce="false" />
    <inkscape:path-effect
       effect="simplify"
       id="path-effect2022"
       is_visible="true"
       lpeversion="1"
       steps="1"
       threshold="0.000408163"
       smooth_angles="360"
       helper_size="0"
       simplify_individual_paths="false"
       simplify_just_coalesce="false" />
  </defs>
  <g
     inkscape:label="Layer 1"
     inkscape:groupmode="layer"
     id="layer1">
    <ellipse
       style="fill:#f6f7fa;fill-opacity:1;stroke:#020b0b;stroke-width:24.8873;stroke-linecap:square;stroke-miterlimit:4;stroke-dasharray:none;stroke-dashoffset:91.8425;stroke-opacity:1;paint-order:fill markers stroke"
       id="path1271"
       cx="256.0094"
       cy="255.35988"
       rx="239.04715"
       ry="238.16" />
    <path
       style="fill:#f7f2e9;fill-opacity:1;stroke:#000000;stroke-width:20.065;stroke-linecap:round;stroke-linejoin:round;stroke-miterlimit:4;stroke-dasharray:none;stroke-opacity:1"
       d="m 169.85736,244.96435 c 3.74102,11.66191 7.68918,23.41243 8.80523,35.68182 0.77803,8.55334 -0.23594,17.36229 -3.71786,25.28973 -1.1425,2.60118 -2.69862,4.98323 -3.86716,7.57603 -4.78332,10.61338 -6.04812,22.55062 -4.85974,34.06009 0.51393,4.97741 2.34585,9.74442 2.81919,14.72482 0.64407,6.77674 3.71993,13.17425 8.1814,18.26918 5.87897,6.71369 13.6839,11.46043 21.84631,14.88829 2.47499,1.03939 6.12937,0.49376 7.56047,2.76474 4.35855,6.91651 7.96877,14.41015 13.60543,20.43278 3.5483,3.79127 8.15454,6.67104 13.28138,7.73811 2.41013,0.50163 4.91339,0.094 7.34354,0.46887 11.63151,1.79424 23.68954,2.03598 35.15695,-0.91182 6.80856,-1.7502 14.47855,-3.5185 18.96644,-8.94684 5.91223,-7.15116 9.47886,-15.96757 15.82626,-22.79424 3.37076,-3.62527 7.73679,-6.45497 12.61569,-7.43797 2.18613,-0.44046 4.38625,-0.82469 6.50596,-1.55981 4.73039,-1.64051 8.83077,-5.00597 11.3072,-9.37263 3.22488,-5.68639 3.94362,-12.45904 3.33825,-18.87419 -0.3599,-3.81386 -2.26807,-7.38024 -2.41881,-11.20697 -0.47065,-11.94831 -4.11061,-23.42434 -6.66569,-35.02177 -1.92182,-8.7231 -3.91138,-17.89506 -1.92025,-26.67097 2.15256,-9.48743 2.21788,-19.27458 3.61883,-28.87328 0.87588,-6.00117 0.3705,-13.75409 5.32638,-17.37711 0.80775,-0.59051 2.25237,-0.0567 3.30028,0.0745 9.56566,1.19697 19.09019,3.41805 28.79069,2.95946 6.24034,-0.29501 12.17297,-2.54213 17.72706,-5.46972 16.1349,-8.50478 29.31671,-22.18335 37.97781,-38.1591 2.95673,-5.45381 6.39552,-10.96607 7.27919,-17.10739 0.71995,-5.0035 2.62251,-9.75948 3.25997,-14.77463 0.31751,-2.49797 0.17231,-5.34127 -1.66129,-7.25728 -2.00307,-2.0931 -4.97691,-3.18829 -7.76323,-3.09398 -1.60787,0.0544 -2.97236,-0.78677 -4.41389,-1.37955 -14.25354,-5.86126 -30.16849,-8.03825 -45.39128,-5.32169 -7.58926,1.35433 -20.03409,0.39133 -21.59678,7.95058 -0.89773,4.34263 -3.85551,8.08069 -7.65432,10.29991 -5.29824,3.09517 -11.87041,3.86863 -17.77571,2.26706 -3.93902,-1.0683 -7.25786,-3.76821 -9.52881,-7.27372 -0.73292,-1.13136 -0.2783,-2.4878 -0.28166,-3.75493 -0.0158,-5.94788 -2.34341,-11.83413 -6.40752,-16.19204 -5.65816,-6.0672 -14.13861,-8.8872 -22.3509,-8.71573 -1.80367,0.0377 -3.56966,0.61231 -5.36326,0.61335 -17.53442,0.0101 -35.10074,2.09797 -52.60963,0.32823 -2.32586,-0.23509 -4.65731,-1.37466 -6.95104,-0.9229 -8.6432,1.70233 -17.56852,2.29595 -25.89853,5.32972 -4.19976,1.52954 -8.39143,3.79625 -10.97176,7.5806 -2.3183,3.40005 -2.6227,7.7536 -1.9104,11.71725 0.22287,1.24017 -0.60407,2.4573 -1.38421,3.35086 -2.19542,2.51458 -5.38057,3.81411 -8.45915,4.88584 -4.36368,1.51911 -8.82819,2.67819 -13.26334,3.98557 -0.54916,0.16188 -1.10795,0.93776 -1.15241,-0.15887 -0.20301,-5.00717 -2.22122,-9.876 -5.53319,-13.63303 -4.42491,-5.01952 -10.49224,-8.24633 -16.66957,-10.58305 -4.93326,-1.86612 -9.98993,-3.49245 -15.17955,-4.41367 -14.15296,-2.51231 -38.447696,-13.98413 -42.943699,-0.29132 -3.251793,9.9035 -7.923798,19.3233 -10.433322,29.47205 -1.376234,5.56562 -2.34449,11.41559 -1.35811,17.10047 1.684703,9.70958 6.709183,18.66118 13.602917,25.6438 6.716206,6.8028 15.681944,10.5436 24.102874,15.02878 10.15305,5.40775 21.52211,8.01747 32.85837,9.47851 6.60354,0.85108 14.63518,-2.27919 19.88552,1.81177 1.29227,1.00691 1.29387,2.76817 1.84603,4.18453 0.28503,0.73114 0.83201,1.39684 1.62045,1.59293 z"
       id="path2316"
       inkscape:path-effect="#path-effect2318"
       inkscape:original-d="m 169.85736,244.96435 c 6.65874,20.72058 15.07064,44.96477 2.79749,65.32042 -8.48246,16.01017 -8.3667,34.97284 -3.61783,52.01207 1.96472,19.24654 20.7658,30.63117 37.58818,35.92221 7.94053,12.58251 14.65572,29.8883 34.23035,28.63976 18.63672,2.8972 38.75101,1.66382 54.12339,-9.85866 9.29004,-11.20332 13.45086,-28.12906 30.57955,-30.63331 20.02205,-3.63972 22.05987,-24.54783 16.595,-40.6125 -0.82577,-20.96964 -11.47731,-40.4358 -8.58594,-61.69274 3.49214,-14.95904 1.65387,-34.73934 9.11846,-46.52815 16.6223,1.62011 34.1913,7.80708 49.64478,-2.15803 21.49305,-11.30472 37.94426,-32.15219 45.23636,-55.12608 1.7359,-11.9812 9.9274,-24.18383 -7.724,-25.41338 -21.75515,-9.94288 -48.99374,-11.06596 -69.82186,1.39642 -3.58346,16.29644 -30.20994,17.62978 -35.35546,4.38608 1.73873,-19.07869 -16.24356,-30.69198 -33.77328,-27.14221 -19.91946,-0.008 -40.06901,2.69232 -59.79411,-0.59464 -14.66386,3.02221 -43.08751,3.40044 -38.68346,25.13303 -2.00315,8.01395 -17.96138,9.05551 -24.33115,12.21814 -0.47602,-18.92176 -21.58251,-25.62195 -36.90545,-29.19968 -14.27327,-2.59271 -29.17524,-3.05857 -43.445749,-0.38159 -4.45673,13.84218 -13.70654,30.1877 -11.87171,46.10639 3.32659,19.92883 19.29834,34.68218 37.786069,41.13871 16.23945,8.61921 34.76551,10.00007 52.74389,11.29028 1.82106,1.24425 0.99676,5.0937 3.46648,5.77746 z"
       sodipodi:nodetypes="cssssssssssssssssssssssssssssssssssssssssssssssssssssc" />
    <circle
       style="fill:#f6f7fa;fill-opacity:1;stroke:#020b0b;stroke-width:20.065;stroke-linecap:round;stroke-linejoin:round;stroke-miterlimit:4;stroke-dasharray:none;stroke-dashoffset:91.8425;stroke-opacity:1;paint-order:fill markers stroke"
       id="path2763"
       cx="223.58772"
       cy="359.93582"
       r="9.8216839" />
    <circle
       style="fill:#f6f7fa;fill-opacity:1;stroke:#020b0b;stroke-width:20.065;stroke-linecap:round;stroke-linejoin:round;stroke-miterlimit:4;stroke-dasharray:none;stroke-dashoffset:91.8425;stroke-opacity:1;paint-order:fill markers stroke"
       id="path2763-5"
       cx="290.0285"
       cy="359.35806"
       r="9.8216839" />
    <path
       style="fill:#160c07;fill-opacity:1;stroke:#000000;stroke-width:10.665;stroke-linecap:round;stroke-linejoin:bevel;stroke-miterlimit:4;stroke-dasharray:none;stroke-opacity:1"
       d="m 173.32383,175.63482 c -3.67631,8.68874 -5.50067,18.10385 -5.74456,27.5197 -0.13928,5.3772 0.26839,10.75975 1.08005,16.0756 0.44489,2.91374 1.07805,5.82248 1.05354,8.78394 -0.008,0.98829 -1.09125,3.5211 -0.28546,2.94774 0.18665,-0.13281 0.12545,-0.39443 0.0241,-0.56166 -0.30607,-0.50495 -0.76173,-0.89543 -1.20496,-1.27565 -1.0951,-0.93942 -2.30263,-1.74213 -3.37168,-2.71145 -0.15126,-0.13715 -0.26084,-0.32261 -0.43249,-0.43363 -3.52473,-2.27973 -7.46056,-3.87177 -10.85818,-6.35553 -0.84113,-0.61489 -1.48712,-1.48733 -2.38482,-2.01698 -6.2366,-3.67967 -13.09933,-6.17822 -19.23366,-10.04371 -2.56425,-1.61584 -4.87203,-3.59609 -7.06371,-5.69553 -4.59629,-4.40285 -8.47682,-9.59523 -11.14087,-15.39214 -0.60514,-1.31677 -1.09174,-2.68273 -1.60399,-4.03764 -1.75991,-4.65499 -7.30601,-8.96642 -5.85185,-13.73602 0.1573,-0.51594 -0.0943,-1.03878 -0.39156,-1.45683 -0.18648,-0.2623 -0.56185,-0.42725 -0.61053,-0.74527 -0.0382,-0.24934 0.35926,-0.13807 0.50826,-0.11599 1.10079,0.16314 2.16632,0.49707 3.22538,0.82848 5.61292,1.75643 10.8894,4.44092 15.90304,7.48522 1.01093,0.61384 2.07109,1.15948 3.01408,1.8728 2.29974,1.73963 5.00224,2.84188 7.73086,3.71456 3.65546,1.1691 7.43406,2.00266 10.93562,3.61646 0.68493,0.31567 1.32934,0.71029 1.99959,1.05429 1.00367,0.51512 2.1947,0.54515 3.26954,0.25116 1.57227,-0.43005 2.96528,-1.32775 4.26613,-2.28218 2.8682,-2.1044 5.39211,-4.66101 8.39499,-6.58161 1.38172,-0.88373 2.89033,-1.7355 4.5515,-1.84161 0.47011,-0.03 0.95181,-0.0593 1.41537,0.0437 0.69799,0.15518 1.23758,0.70846 1.53344,1.34033 0.47231,1.00871 0.5768,2.14867 0.53655,3.24726 -0.0391,1.06752 -0.12258,2.16403 -0.52697,3.15686 -0.10156,0.24934 -0.16778,0.57171 -0.4168,0.69896 -0.19785,0.1011 -0.31214,-0.16414 -0.35053,-0.31575 -0.12269,-0.48457 -0.21509,-0.97673 -0.32486,-1.46466 -0.49883,-2.21735 -1.07199,-4.44279 -1.11103,-6.72873"
       id="path3551"
       inkscape:path-effect="#path-effect3553"
       inkscape:original-d="m 173.32383,175.63482 c -5.6821,13.44244 -6.93403,28.44811 -4.78047,42.80933 0.58948,4.18924 1.69326,8.42421 0.88404,12.51765 0.95305,-0.74484 -3.91902,-3.71948 -4.98505,-4.98239 -4.42879,-2.86052 -9.48636,-4.65365 -13.243,-8.37251 -8.76581,-5.17568 -19.0426,-8.10465 -26.23149,-15.67621 -5.62552,-5.37406 -10.19107,-11.87539 -12.72687,-19.27107 -1.78959,-4.72993 -3.5459,-9.48855 -5.93572,-13.95776 0.49154,-1.71333 -2.89869,-2.85966 0.53999,-2.12015 7.53699,1.97796 14.49002,5.78922 21.03777,9.93486 6.04306,4.60074 14.14116,4.54448 20.5921,8.36373 6.1667,3.34716 14.25467,-10.68238 21.38221,-10.40097 4.69796,-0.1211 2.06461,11.07214 1.385,8.0006 -0.53643,-2.64936 -1.33831,-5.27886 -1.385,-8.0006"
       sodipodi:nodetypes="cccccccccccccc" />
    <path
       style="fill:#010007;fill-opacity:1;stroke:#010005;stroke-width:10.665;stroke-linecap:round;stroke-linejoin:miter;stroke-miterlimit:4;stroke-dasharray:none;stroke-opacity:1"
       d="m 335.85962,178.28067 c -0.0384,2.99184 0.68463,5.92835 1.57302,8.76528 1.11614,3.56422 2.49665,7.07041 3.08541,10.77723 0.16494,1.03845 0.19767,2.09068 0.26248,3.13938 0.32344,5.2336 0.74919,10.48948 0.32226,15.73019 -0.107,1.31345 0.31217,2.88042 -0.49685,3.92084 -0.7566,0.97301 -1.25623,2.17743 -1.28154,3.41757 -0.0152,0.74426 0.18708,1.53896 0.74254,2.06733 0.53769,0.51147 1.31964,0.6341 2.0385,0.59994 0.50234,-0.0239 0.9868,-0.15862 1.48254,-0.23249 4.27409,-0.63689 8.35988,-2.14673 12.29129,-3.89756 3.44631,-1.53479 6.87774,-3.10629 10.23514,-4.82613 5.74988,-2.9454 11.51479,-5.93624 16.75278,-9.74455 3.09188,-2.24797 5.84519,-4.91616 8.47024,-7.70125 1.29174,-1.37049 2.15132,-3.08343 2.78665,-4.84156 0.567,-1.56905 0.40578,-3.4889 1.45375,-4.7852 1.10062,-1.36143 2.26007,-2.7116 2.99836,-4.31613 0.54549,-1.18551 0.70699,-2.50785 0.65154,-3.81313 -0.0158,-0.37119 0.0383,-0.74442 0.11384,-1.10722 0.20897,-1.0037 0.59901,-1.99599 1.2683,-2.77958 0.27129,-0.31762 1.34663,-0.49946 1.00078,-0.74904 -0.62001,-0.44742 -1.41399,-0.60446 -2.16631,-0.50552 -1.09518,0.14403 -2.09568,0.65183 -3.06839,1.14628 -1.0689,0.54335 -2.09786,1.25607 -3.28677,1.47058 -0.46367,0.0837 -0.88541,0.30383 -1.31831,0.48173 -6.82393,2.80424 -13.55156,5.90191 -20.63453,8.017 -1.5833,0.4728 -3.1584,1.02671 -4.79545,1.25223 -2.7839,0.38351 -5.6246,0.003 -8.30372,-0.79641 -3.71107,-1.10708 -7.13804,-2.94838 -10.58132,-4.68529 -1.90484,-0.96087 -3.76104,-2.01389 -5.63698,-3.02919 -1.9528,-1.0569 -3.92412,-2.08461 -5.95925,-2.97533 z"
       id="path4545"
       inkscape:path-effect="#path-effect4547"
       inkscape:original-d="m 335.85962,178.28067 c -0.0886,7.83662 4.82512,14.69336 4.91139,22.52763 0.4048,6.58088 0.98617,13.27329 -0.16507,19.80529 -2.0624,2.61872 -1.91252,7.02332 2.50061,5.92063 8.23403,-1.10342 15.55633,-5.40061 23.00786,-8.79197 9.07835,-4.64856 18.45715,-9.54959 25.19356,-17.41447 2.52121,-2.66964 3.25794,-6.27378 4.26986,-9.65809 1.95051,-2.40557 4.00125,-4.69713 3.64192,-8.2114 0.069,-2.092 1.29673,-4.2289 2.3909,-4.5537 -2.64924,-1.84804 -5.98978,1.65217 -8.82202,2.17741 -8.68955,3.52487 -17.25002,7.65001 -26.44774,9.68489 -7.08607,0.95637 -13.65251,-2.83621 -19.74491,-5.91939 -3.56287,-1.88394 -7.03954,-3.94874 -10.73636,-5.56683 z" />
    <ellipse
       style="fill:#000000;fill-opacity:1;stroke:#020b0b;stroke-width:11.0995;stroke-linecap:round;stroke-linejoin:bevel;stroke-miterlimit:4;stroke-dasharray:none;stroke-dashoffset:91.8425;stroke-opacity:1;paint-order:fill markers stroke"
       id="path6810"
       cx="83.195435"
       cy="311.40512"
       rx="24.048096"
       ry="24.625841" />
    <ellipse
       style="fill:none;fill-opacity:1;stroke:#020b0b;stroke-width:10.665;stroke-linecap:round;stroke-linejoin:bevel;stroke-miterlimit:4;stroke-dasharray:none;stroke-dashoffset:91.8425;stroke-opacity:1;paint-order:fill markers stroke"
       id="path6837"
       cx="387.0899"
       cy="343.75894"
       rx="17.332384"
       ry="17.91013" />
    <ellipse
       style="fill:none;fill-opacity:1;stroke:#020b0b;stroke-width:10.665;stroke-linecap:round;stroke-linejoin:bevel;stroke-miterlimit:4;stroke-dasharray:none;stroke-dashoffset:91.8425;stroke-opacity:1;paint-order:fill markers stroke"
       id="path6839"
       cx="251.31955"
       cy="79.151215"
       rx="19.065622"
       ry="20.221115" />
    <ellipse
       style="fill:#000000;fill-opacity:1;stroke:#020b0b;stroke-width:10.665;stroke-linecap:round;stroke-linejoin:bevel;stroke-miterlimit:4;stroke-dasharray:none;stroke-dashoffset:91.8425;stroke-opacity:1;paint-order:fill markers stroke"
       id="path6841"
       cx="420.02142"
       cy="293.49503"
       rx="19.065622"
       ry="19.643368" />
  </g>
</svg>
