<?xml version="1.0" encoding="UTF-8" standalone="no"?>
<svg
   version="1.1"
   id="svg969"
   width="320"
   height="320"
   viewBox="0 0 320 320"
   xmlns="http://www.w3.org/2000/svg"
   xmlns:svg="http://www.w3.org/2000/svg"
   xmlns:rdf="http://www.w3.org/1999/02/22-rdf-syntax-ns#"
   xmlns:cc="http://creativecommons.org/ns#"
   xmlns:dc="http://purl.org/dc/elements/1.1/">
  <metadata
     id="metadata975">
    <rdf:RDF>
      <cc:Work
         rdf:about="">
        <dc:format>image/svg+xml</dc:format>
        <dc:type
           rdf:resource="http://purl.org/dc/dcmitype/StillImage" />
      </cc:Work>
    </rdf:RDF>
  </metadata>
  <defs
     id="defs973">
    <rect
       x="80.958013"
       y="66.410988"
       width="162.87649"
       height="45.329816"
       id="rect1018" />
  </defs>
  <g
     id="layer1">
    <circle
       style="display:inline;fill:#cbdae0;fill-opacity:0.99798983;stroke:#09002e;stroke-width:8.90991;stroke-linejoin:round;stroke-opacity:1;fill-rule:nonzero"
       id="path981"
       d="M 197.72293,310.23745 A 153.2735,153.74727 0 0 1 11.97739,198.19378 153.2735,153.74727 0 0 1 123.6458,11.856001 153.2735,153.74727 0 0 1 309.42742,123.83948 153.2735,153.74727 0 0 1 197.81902,310.21343"
       clip-path="none" />
    <circle
       style="display:inline;fill:#8ebcea;fill-opacity:1;fill-rule:nonzero;stroke:#09002e;stroke-width:8.90991;stroke-linejoin:round;stroke-opacity:1"
       id="path981-3-3"
       d="M 161.68852,314.88648 A 153.2735,153.74727 0 0 1 28.693873,238.1468 153.2735,153.74727 0 0 1 28.62951,84.244022 153.2735,153.74727 0 0 1 161.55992,7.39244"
       clip-path="none" />
  </g>
  <g
     id="g977"
     style="display:inline">
    <text
       xml:space="preserve"
       id="text1016"
       style="font-style:normal;font-weight:normal;font-size:40px;line-height:1.25;font-family:sans-serif;white-space:pre;shape-inside:url(#rect1018);fill:#000000;fill-opacity:1;stroke:none" />
    <text
       xml:space="preserve"
       style="font-style:normal;font-weight:normal;font-size:59.0716px;line-height:1.25;font-family:sans-serif;fill:#c10000;fill-opacity:1;stroke:none;stroke-width:1.03032"
       x="82.580482"
       y="68.063026"
       id="text1024"
       transform="scale(1.0303203,0.97057196)"><tspan
         id="tspan1022"
         x="82.580482"
         y="68.063026"
         style="font-style:normal;font-variant:normal;font-weight:normal;font-stretch:normal;font-size:59.0716px;font-family:Dyuthi;-inkscape-font-specification:Dyuthi;fill:#a40000;fill-opacity:1;stroke-width:1.03032"
         dx="1.2045579"
         dy="0.020606408"
         rotate="0.30000001 0.30000001 0.30000001 0.30000001 0">ACGT</tspan></text>
    <path
       style="fill:none;stroke:#000000;stroke-width:7.04535;stroke-linecap:round;stroke-linejoin:round;stroke-miterlimit:4;stroke-dasharray:none;stroke-opacity:1"
       d="m 72.598755,89.261116 175.262465,-0.737932 -0.4479,51.065916 -34.7821,0.15498 -0.43683,122.16986"
       id="path1026" />
    <path
       style="fill:none;stroke:#000000;stroke-width:7;stroke-linecap:butt;stroke-linejoin:round;stroke-miterlimit:4;stroke-dasharray:none;stroke-opacity:1"
       d="m 247.41907,139.5891 34.32511,0.0328 -0.70673,40.76386"
       id="path1028" />
    <path
       style="fill:none;stroke:#000000;stroke-width:8.09815;stroke-linecap:butt;stroke-linejoin:miter;stroke-miterlimit:4;stroke-dasharray:none;stroke-opacity:1"
       d="M 160.2985,88.728635 160.1814,75.616341"
       id="path1030" />
    <path
       style="fill:none;stroke:#000000;stroke-width:7.25225;stroke-linecap:round;stroke-linejoin:round;stroke-miterlimit:4;stroke-dasharray:none;stroke-opacity:1"
       d="m 72.598755,89.261116 0.304068,49.372044 32.447057,0.30376 0.12765,64.16936 29.25945,-0.13236 -0.7551,60.80721 0.14778,0.13426 0.57,-1.29836"
       id="path1032" />
    <path
       style="fill:none;stroke:#000000;stroke-width:7;stroke-linecap:butt;stroke-linejoin:round;stroke-miterlimit:4;stroke-dasharray:none;stroke-opacity:1"
       d="m 105.47753,203.10628 -27.721912,-0.0544 0.187191,39.27356"
       id="path1034" />
    <path
       style="fill:none;stroke:#000000;stroke-width:7;stroke-linecap:butt;stroke-linejoin:round;stroke-miterlimit:4;stroke-dasharray:none;stroke-opacity:1"
       d="m 75.129484,138.63316 -35.452352,0.45487 -0.489735,44.4775"
       id="path1036" />
    <circle
       style="fill:#000000;fill-opacity:0.907272;stroke:#09002e;stroke-width:7;stroke-linejoin:round;stroke-miterlimit:4;stroke-dasharray:none;stroke-opacity:1"
       id="path1038"
       d="m 284.3825,192.92597 a 10.664976,11.287799 0 0 1 -12.92443,-8.22601 10.664976,11.287799 0 0 1 7.77004,-13.68053 10.664976,11.287799 0 0 1 12.92694,8.2216 10.664976,11.287799 0 0 1 -7.76587,13.68317" />
    <circle
       style="fill:#000000;fill-opacity:0.907272;stroke:#09002e;stroke-width:7;stroke-linejoin:round;stroke-miterlimit:4;stroke-dasharray:none;stroke-opacity:1"
       id="path1038-4"
       d="m 214.23876,271.85807 a 10.664976,11.287799 0 0 1 -12.92442,-8.22601 10.664976,11.287799 0 0 1 7.77004,-13.68053 10.664976,11.287799 0 0 1 12.92693,8.22159 10.664976,11.287799 0 0 1 -7.76587,13.68318" />
    <circle
       style="fill:#000000;fill-opacity:0.907272;stroke:#09002e;stroke-width:7;stroke-linejoin:round;stroke-miterlimit:4;stroke-dasharray:none;stroke-opacity:1"
       id="path1038-5"
       d="m 136.39718,278.27103 a 10.664976,11.287799 0 0 1 -12.92443,-8.22601 10.664976,11.287799 0 0 1 7.77004,-13.68053 10.664976,11.287799 0 0 1 12.92694,8.2216 10.664976,11.287799 0 0 1 -7.76587,13.68318" />
    <circle
       style="fill:#000000;fill-opacity:0.907272;stroke:#09002e;stroke-width:7;stroke-linejoin:round;stroke-miterlimit:4;stroke-dasharray:none;stroke-opacity:1"
       id="path1038-7"
       d="m 80.565558,254.21639 a 10.664976,11.287799 0 0 1 -12.924425,-8.22601 10.664976,11.287799 0 0 1 7.77004,-13.68053 10.664976,11.287799 0 0 1 12.926933,8.2216 10.664976,11.287799 0 0 1 -7.765865,13.68318" />
    <circle
       style="fill:#000000;fill-opacity:0.907272;stroke:#09002e;stroke-width:7;stroke-linejoin:round;stroke-miterlimit:4;stroke-dasharray:none;stroke-opacity:1"
       id="path1038-0"
       d="m 41.81827,191.21753 a 10.664976,11.287799 0 0 1 -12.924425,-8.22601 10.664976,11.287799 0 0 1 7.77004,-13.68052 10.664976,11.287799 0 0 1 12.926934,8.22159 10.664976,11.287799 0 0 1 -7.765866,13.68318" />
  </g>
</svg>
