<?xml version="1.0" encoding="UTF-8" standalone="no"?>
<svg
   version="1.1"
   id="svg969"
   width="512"
   height="512"
   viewBox="0 0 512 512"
   sodipodi:docname="logo.svg"
   inkscape:version="1.1.2 (0a00cf5339, 2022-02-04)"
   xmlns:inkscape="http://www.inkscape.org/namespaces/inkscape"
   xmlns:sodipodi="http://sodipodi.sourceforge.net/DTD/sodipodi-0.dtd"
   xmlns="http://www.w3.org/2000/svg"
   xmlns:svg="http://www.w3.org/2000/svg"
   xmlns:rdf="http://www.w3.org/1999/02/22-rdf-syntax-ns#"
   xmlns:cc="http://creativecommons.org/ns#"
   xmlns:dc="http://purl.org/dc/elements/1.1/">
  <sodipodi:namedview
     id="namedview24"
     pagecolor="#ffffff"
     bordercolor="#999999"
     borderopacity="1"
     inkscape:pageshadow="0"
     inkscape:pageopacity="0"
     inkscape:pagecheckerboard="0"
     showgrid="false"
     inkscape:zoom="1.1359375"
     inkscape:cx="230.20633"
     inkscape:cy="262.77854"
     inkscape:window-width="1862"
     inkscape:window-height="1016"
     inkscape:window-x="58"
     inkscape:window-y="27"
     inkscape:window-maximized="1"
     inkscape:current-layer="text1024"
     width="512px" />
  <metadata
     id="metadata975">
    <rdf:RDF>
      <cc:Work
         rdf:about="">
        <dc:format>image/svg+xml</dc:format>
        <dc:type
           rdf:resource="http://purl.org/dc/dcmitype/StillImage" />
      </cc:Work>
    </rdf:RDF>
  </metadata>
  <defs
     id="defs973">
    <rect
       x="80.958015"
       y="66.410988"
       width="162.8765"
       height="45.329815"
       id="rect1018" />
  </defs>
  <path
     style="display:inline;fill:#92e1ff;fill-opacity:1;stroke:#000023;stroke-width:9.61701991;stroke-linecap:round;stroke-miterlimit:4;stroke-dasharray:none;stroke-opacity:1"
     id="path863"
     sodipodi:type="arc"
     sodipodi:cx="254.92412"
     sodipodi:cy="256.46353"
     sodipodi:rx="243.94809"
     sodipodi:ry="244.85664"
     sodipodi:start="5.9292384"
     sodipodi:end="5.9159786"
     sodipodi:open="true"
     sodipodi:arc-type="arc"
     d="M 483.75036,171.59555 A 243.94809,244.85664 0 0 1 340.23528,485.85941 243.94809,244.85664 0 0 1 26.663483,342.85239 243.94809,244.85664 0 0 1 168.09962,27.640401 243.94809,244.85664 0 0 1 482.60912,168.55761"
     transform="matrix(1,0,-0.0028782,0.99999586,0,0)"
     inkscape:label="layer3" />
  <path
     style="display:inline;fill:#48b7de;fill-opacity:1;stroke:#000023;stroke-width:9.01701867;stroke-linecap:round;stroke-miterlimit:4;stroke-dasharray:none;stroke-opacity:1"
     id="path863-3"
     sodipodi:type="arc"
     sodipodi:cx="254.10832"
     sodipodi:cy="256.49103"
     sodipodi:rx="243.94885"
     sodipodi:ry="244.85664"
     sodipodi:start="1.5495936"
     sodipodi:end="4.7059732"
     sodipodi:open="true"
     sodipodi:arc-type="arc"
     transform="matrix(1,0,-0.0028782,0.99999586,0,0)"
     inkscape:label="layer3"
     d="M 259.28032,501.29264 A 243.94885,244.85664 0 0 1 44.855286,382.35387 243.94885,244.85664 0 0 1 41.472273,136.47621 243.94885,244.85664 0 0 1 252.54321,11.639424" />
  <g
     id="g977"
     style="display:inline"
     inkscape:label="layer2"
     transform="matrix(1.6036451,0,0,1.6195668,-2.1503793,-3.5855222)">
    <text
       xml:space="preserve"
       id="text1016"
       style="font-style:normal;font-weight:normal;font-size:40px;line-height:1.25;font-family:sans-serif;white-space:pre;shape-inside:url(#rect1018);fill:#000000;fill-opacity:1;stroke:none" />
    <g
       aria-label="ACGT"
       transform="scale(1.0303203,0.97057196)"
       id="text1024"
       style="font-size:59.0716px;line-height:1.25;fill:#c10000;stroke-width:1.03032">
      <path
         d="m 79.599958,70.742893 11.848801,0.06204 -5.82046,-16.4005 z M 94.032121,50.911928 q 0,0 11.461309,32.289636 0.93415,2.629928 -0.71828,4.881725 -1.65263,2.288254 -4.38697,2.273937 l -0.802075,-0.0042 q -1.749977,-0.0092 -3.239022,-1.110725 -1.489236,-1.065104 -1.772499,-2.670777 l -1.848467,-9.051473 -13.817525,-0.07235 -1.796746,8.923011 q -0.337284,1.748259 -1.87405,2.797519 -1.573223,1.049069 -3.651321,1.038188 l -0.802072,-0.0042 q -2.734339,-0.01432 -4.326458,-2.319561 -1.59231,-2.268786 -0.703578,-4.88917 L 76.969084,50.968421 q 0.962412,-2.765834 3.304304,-4.39422 2.341893,-1.628386 4.748111,-1.615787 l 1.02082,0.0053 q 2.36976,0.01241 4.694473,1.665229 2.36117,1.653011 3.295329,4.28294 z"
         style="font-size:74.6667px;font-family:Dyuthi;-inkscape-font-specification:'Dyuthi, Normal';fill:#a43055"
         id="path844" />
      <path
         d="m 136.66209,90.740315 q -0.4375,-0.0023 -1.09317,-0.1151 -11.18969,-0.605473 -17.17259,-6.871263 -6.01917,-6.302439 -5.96687,-16.29189 0.0523,-9.989451 6.6109,-16.189573 6.55879,-6.236581 16.77176,-7.094576 1.05805,-0.140296 1.60453,-0.06452 0.54725,-0.07005 2.84295,0.160721 2.29589,0.194316 5.46219,1.268202 2.80305,0.816771 2.78702,3.879231 -0.0882,2.916246 -2.86395,3.849642 -1.31592,0.649369 -3.60723,-0.419935 -2.00022,-0.958403 -4.66183,-0.935881 -5.72388,-0.02997 -9.72146,4.469996 -3.99834,4.645797 -4.0682,11.02573 -0.0334,6.380124 3.91682,10.921705 3.9867,4.541772 9.71058,4.571743 2.66142,0.01394 4.70764,-0.850363 2.04623,-0.864299 3.50225,-0.419169 l 0.10937,5.73e-4 q 3.0575,0.963939 3.00443,4.135581 -0.0532,3.2081 -3.15618,3.957489 -3.06666,0.786038 -6.60383,0.913352 -0.65701,0.142396 -1.05785,0.103838 0,0 -1.05728,-0.0055 z"
         style="font-size:74.6667px;font-family:Dyuthi;-inkscape-font-specification:'Dyuthi, Normal';fill:#a43055"
         id="path846" />
      <path
         d="m 181.20634,64.396942 q 0,0 10.20819,0.05345 1.85974,-0.06318 3.16516,1.292632 1.30561,1.319355 1.25941,3.178515 l -0.0716,13.671694 q -0.0861,2.51521 -1.70074,4.511992 -1.61426,1.923867 -3.47552,2.27871 -1.86126,0.354843 -4.81682,0.813332 -2.95576,0.494948 -6.56509,0.476049 -12.17692,-0.06376 -18.70631,-6.405328 -6.56585,-6.34176 -6.58608,-16.404509 0.13172,-11.228636 7.67563,-17.605893 7.54372,-6.3408 18.99149,-6.280859 2.66142,0.01393 10.64226,0.711982 1.60338,0.154231 2.54441,1.471677 1.69958,2.670395 0.55259,5.872768 l -0.0733,0.07253 q -1.32947,3.237877 -4.46351,2.966255 l -10.16639,-1.07408 q -8.23528,-0.845214 -11.535,2.674017 -4.76567,4.969909 -4.10963,11.973443 0.51614,5.872578 5.01572,9.94307 4.53604,4.070683 10.87971,4.103899 l 1.82289,0.0095 q 1.23957,0.0065 2.37568,-1.117786 1.13611,-1.124275 1.14241,-2.327384 l 0.0279,-5.322846 q 0.006,-1.20311 -0.79234,-1.863551 -0.94236,-1.06224 -1.74654,-0.665404 l -2.12009,1.046206 q -2.52189,1.189937 -3.30793,-1.876722 l 3.8e-4,-0.07292 q -0.78813,-2.665622 0.67992,-4.517337 1.17505,-1.598037 3.25315,-1.587156 z"
         style="font-size:74.6667px;font-family:Dyuthi;-inkscape-font-specification:'Dyuthi, Normal';fill:#a43055"
         id="path848" />
      <path
         d="m 201.40674,49.927172 q 0,0 7.6e-4,-0.145831 -0.49858,-2.26306 0.63925,-3.715456 1.13783,-1.452396 2.96073,-1.442851 l 27.96317,0.146416 q 1.85935,0.0097 3.01798,1.547074 1.15864,1.537338 0.52778,3.648648 l -7.6e-4,0.145832 q -0.29797,1.201582 -1.39609,2.034385 -1.13459,0.832613 -2.19129,0.717704 l -8.38187,-0.700147 -0.17333,33.103728 q -0.0124,2.369761 -1.62515,4.001964 -1.61254,1.595747 -4.01876,1.583147 l -0.0365,-1.9e-4 q -2.3333,-0.01222 -3.92905,-1.624762 -1.59574,-1.612545 -1.58314,-4.018763 l 0.17333,-33.103729 -8.38874,0.612335 q -1.24014,0.102884 -2.29246,-0.850556 -1.0525,-0.916983 -1.2659,-1.938948 z"
         style="font-size:74.6667px;font-family:Dyuthi;-inkscape-font-specification:'Dyuthi, Normal';fill:#a43055"
         id="path850" />
    </g>
    <path
       style="fill:none;stroke:#000000;stroke-width:7.04535;stroke-linecap:round;stroke-linejoin:round;stroke-miterlimit:4;stroke-dasharray:none;stroke-opacity:1"
       d="m 72.629892,101.94341 174.938868,-0.74655 -0.15544,38.39224 -34.7821,0.15498 -0.43683,122.16986"
       id="path1026"
       sodipodi:nodetypes="ccccc" />
    <path
       style="fill:none;stroke:#000000;stroke-width:7;stroke-linecap:butt;stroke-linejoin:round;stroke-miterlimit:4;stroke-dasharray:none;stroke-opacity:1"
       d="m 247.41907,139.5891 34.32511,0.0328 -0.70673,40.76386"
       id="path1028" />
    <path
       style="fill:none;stroke:#000000;stroke-width:7.25225;stroke-linecap:round;stroke-linejoin:round;stroke-miterlimit:4;stroke-dasharray:none;stroke-opacity:1"
       d="m 72.629892,101.94341 0.272931,36.68975 32.447057,0.30376 0.12765,64.16936 29.25945,-0.13236 -0.7551,60.80721 0.14778,0.13426 0.57,-1.29836"
       id="path1032"
       sodipodi:nodetypes="cccccccc" />
    <path
       style="fill:none;stroke:#000000;stroke-width:7;stroke-linecap:butt;stroke-linejoin:round;stroke-miterlimit:4;stroke-dasharray:none;stroke-opacity:1"
       d="m 105.47753,203.10628 -27.721912,-0.0544 0.187191,39.27356"
       id="path1034" />
    <path
       style="fill:none;stroke:#000000;stroke-width:7;stroke-linecap:butt;stroke-linejoin:round;stroke-miterlimit:4;stroke-dasharray:none;stroke-opacity:1"
       d="m 75.129484,138.63316 -35.452352,0.45487 -0.489735,44.4775"
       id="path1036" />
    <circle
       style="fill:#000000;fill-opacity:0.907272;stroke:#09002e;stroke-width:7;stroke-linejoin:round;stroke-miterlimit:4;stroke-dasharray:none;stroke-opacity:1"
       id="path1038"
       cx="0"
       cy="0"
       r="0" />
    <circle
       style="fill:#000000;fill-opacity:0.907272;stroke:#09002e;stroke-width:7;stroke-linejoin:round;stroke-miterlimit:4;stroke-dasharray:none;stroke-opacity:1"
       id="path1038-4"
       cx="0"
       cy="0"
       r="0" />
    <circle
       style="fill:#000000;fill-opacity:0.907272;stroke:#09002e;stroke-width:7;stroke-linejoin:round;stroke-miterlimit:4;stroke-dasharray:none;stroke-opacity:1"
       id="path1038-5"
       cx="0"
       cy="0"
       r="0" />
    <circle
       style="fill:#000000;fill-opacity:0.907272;stroke:#09002e;stroke-width:7;stroke-linejoin:round;stroke-miterlimit:4;stroke-dasharray:none;stroke-opacity:1"
       id="path1038-7"
       cx="0"
       cy="0"
       r="0" />
    <circle
       style="fill:#000000;fill-opacity:0.907272;stroke:#09002e;stroke-width:7;stroke-linejoin:round;stroke-miterlimit:4;stroke-dasharray:none;stroke-opacity:1"
       id="path1038-0"
       cx="0"
       cy="0"
       r="0" />
  </g>
  <g
     id="layer1"
     style="display:inline"
     inkscape:groupmode="layer" />
  <path
     style="fill:#040709;fill-opacity:1;stroke:#00000e;stroke-width:7.217;stroke-linecap:round;stroke-miterlimit:4;stroke-dasharray:none;stroke-opacity:1"
     id="path1405-3"
     sodipodi:type="arc"
     sodipodi:cx="59.095203"
     sodipodi:cy="293.46249"
     sodipodi:rx="16.098158"
     sodipodi:ry="16.41349"
     sodipodi:start="5.9104179"
     sodipodi:end="5.8780944"
     sodipodi:open="true"
     sodipodi:arc-type="arc"
     d="m 74.087789,287.4848 a 16.098158,16.41349 0 0 1 -9.00877,21.21515 16.098158,16.41349 0 0 1 -20.879693,-9.0135 16.098158,16.41349 0 0 1 8.671321,-21.36083 16.098158,16.41349 0 0 1 21.019835,8.66828" />
  <path
     style="fill:#040709;fill-opacity:1;stroke:#00000e;stroke-width:7.217;stroke-linecap:round;stroke-miterlimit:4;stroke-dasharray:none;stroke-opacity:1"
     id="path1405-3-6"
     sodipodi:type="arc"
     sodipodi:cx="446.78156"
     sodipodi:cy="299.38626"
     sodipodi:rx="16.098158"
     sodipodi:ry="16.41349"
     sodipodi:start="5.9104179"
     sodipodi:end="5.8780944"
     sodipodi:open="true"
     sodipodi:arc-type="arc"
     d="m 461.77414,293.40856 a 16.098158,16.41349 0 0 1 -9.00877,21.21516 16.098158,16.41349 0 0 1 -20.87969,-9.0135 16.098158,16.41349 0 0 1 8.67132,-21.36083 16.098158,16.41349 0 0 1 21.01983,8.66828" />
  <path
     style="fill:#040709;fill-opacity:1;stroke:#00000e;stroke-width:7.217;stroke-linecap:round;stroke-miterlimit:4;stroke-dasharray:none;stroke-opacity:1"
     id="path1405-3-2"
     sodipodi:type="arc"
     sodipodi:cx="338.73834"
     sodipodi:cy="426.3786"
     sodipodi:rx="16.098158"
     sodipodi:ry="16.41349"
     sodipodi:start="5.9104179"
     sodipodi:end="5.8780944"
     sodipodi:open="true"
     sodipodi:arc-type="arc"
     d="m 353.73093,420.4009 a 16.098158,16.41349 0 0 1 -9.00877,21.21516 16.098158,16.41349 0 0 1 -20.8797,-9.0135 16.098158,16.41349 0 0 1 8.67133,-21.36083 16.098158,16.41349 0 0 1 21.01983,8.66828" />
  <path
     style="fill:#040709;fill-opacity:1;stroke:#00000e;stroke-width:7.217;stroke-linecap:round;stroke-miterlimit:4;stroke-dasharray:none;stroke-opacity:1"
     id="path1405-3-8"
     sodipodi:type="arc"
     sodipodi:cx="212.88548"
     sodipodi:cy="428.11133"
     sodipodi:rx="16.098158"
     sodipodi:ry="16.41349"
     sodipodi:start="5.9104179"
     sodipodi:end="5.8780944"
     sodipodi:open="true"
     sodipodi:arc-type="arc"
     d="m 227.87807,422.13363 a 16.098158,16.41349 0 0 1 -9.00877,21.21516 16.098158,16.41349 0 0 1 -20.87969,-9.0135 16.098158,16.41349 0 0 1 8.67132,-21.36083 16.098158,16.41349 0 0 1 21.01983,8.66827" />
  <path
     style="fill:#040709;fill-opacity:1;stroke:#00000e;stroke-width:7.217;stroke-linecap:round;stroke-miterlimit:4;stroke-dasharray:none;stroke-opacity:1"
     id="path1405-3-4"
     sodipodi:type="arc"
     sodipodi:cx="122.00219"
     sodipodi:cy="391.31793"
     sodipodi:rx="16.098158"
     sodipodi:ry="16.41349"
     sodipodi:start="5.9104179"
     sodipodi:end="5.8780944"
     sodipodi:open="true"
     sodipodi:arc-type="arc"
     d="m 136.99477,385.34023 a 16.098158,16.41349 0 0 1 -9.00876,21.21516 16.098158,16.41349 0 0 1 -20.8797,-9.0135 16.098158,16.41349 0 0 1 8.67132,-21.36083 16.098158,16.41349 0 0 1 21.01984,8.66828" />
</svg>
