<?xml version="1.0" encoding="UTF-8" standalone="no"?>
<!-- Created with Inkscape (http://www.inkscape.org/) -->

<svg
   width="512mm"
   height="512mm"
   viewBox="0 0 512 512"
   version="1.1"
   id="svg5"
   inkscape:version="1.1.2 (0a00cf5339, 2022-02-04)"
   sodipodi:docname="plot_heatmap.svg"
   inkscape:export-filename="/home/farrell/gitprojects/snipgenie/svg/bar.png"
   inkscape:export-xdpi="25.4"
   inkscape:export-ydpi="25.4"
   xmlns:inkscape="http://www.inkscape.org/namespaces/inkscape"
   xmlns:sodipodi="http://sodipodi.sourceforge.net/DTD/sodipodi-0.dtd"
   xmlns="http://www.w3.org/2000/svg"
   xmlns:svg="http://www.w3.org/2000/svg">
  <sodipodi:namedview
     id="namedview7"
     pagecolor="#ffffff"
     bordercolor="#999999"
     borderopacity="1"
     inkscape:pageshadow="0"
     inkscape:pageopacity="0"
     inkscape:pagecheckerboard="0"
     inkscape:document-units="mm"
     showgrid="false"
     width="209mm"
     inkscape:zoom="0.22897889"
     inkscape:cx="209.62631"
     inkscape:cy="875.62657"
     inkscape:window-width="2560"
     inkscape:window-height="1300"
     inkscape:window-x="0"
     inkscape:window-y="0"
     inkscape:window-maximized="1"
     inkscape:current-layer="layer1" />
  <defs
     id="defs2" />
  <g
     inkscape:label="Layer 1"
     inkscape:groupmode="layer"
     id="layer1">
    <rect
       style="fill:#10cc00;stroke:#14191f;stroke-width:8.39157;stroke-linecap:round;stroke-miterlimit:4;stroke-dasharray:none;stroke-opacity:0.910387"
       id="rect31"
       width="116.09458"
       height="116.69427"
       x="30.68174"
       y="-137.60898"
       transform="matrix(4.8062288e-4,0.99999988,-0.99985621,0.01695753,0,0)" />
    <rect
       style="fill:#dcfc64;stroke:#14191f;stroke-width:8.39157;stroke-linecap:round;stroke-miterlimit:4;stroke-dasharray:none;stroke-opacity:0.910387"
       id="rect31-8"
       width="116.09458"
       height="116.69427"
       x="31.146709"
       y="-254.62453"
       transform="matrix(4.8062288e-4,0.99999988,-0.99985621,0.01695753,0,0)" />
    <rect
       style="fill:#f0fccc;stroke:#14191f;stroke-width:8.39157;stroke-linecap:round;stroke-miterlimit:4;stroke-dasharray:none;stroke-opacity:0.910387"
       id="rect31-0"
       width="116.09458"
       height="116.69427"
       x="31.146709"
       y="-371.31873"
       transform="matrix(4.8062288e-4,0.99999988,-0.99985621,0.01695753,0,0)" />
    <rect
       style="fill:#fcfc5c;stroke:#14191f;stroke-width:8.39157;stroke-linecap:round;stroke-miterlimit:4;stroke-dasharray:none;stroke-opacity:0.910387"
       id="rect31-8-2"
       width="116.09458"
       height="116.69427"
       x="31.611679"
       y="-488.33426"
       transform="matrix(4.8062288e-4,0.99999988,-0.99985621,0.01695753,0,0)" />
    <rect
       style="fill:#006c00;stroke:#14191f;stroke-width:8.39157;stroke-linecap:round;stroke-miterlimit:4;stroke-dasharray:none;stroke-opacity:0.910387"
       id="rect31-1"
       width="116.09458"
       height="116.69427"
       x="146.31139"
       y="-137.28773"
       transform="matrix(4.8062288e-4,0.99999988,-0.99985621,0.01695753,0,0)" />
    <rect
       style="fill:#24d000;stroke:#14191f;stroke-width:8.39157;stroke-linecap:round;stroke-miterlimit:4;stroke-dasharray:none;stroke-opacity:0.910387"
       id="rect31-8-0"
       width="116.09458"
       height="116.69427"
       x="146.77635"
       y="-254.30327"
       transform="matrix(4.8062288e-4,0.99999988,-0.99985621,0.01695753,0,0)" />
    <rect
       style="fill:#68e000;stroke:#14191f;stroke-width:8.39157;stroke-linecap:round;stroke-miterlimit:4;stroke-dasharray:none;stroke-opacity:0.910387"
       id="rect31-0-5"
       width="116.09458"
       height="116.69427"
       x="146.77635"
       y="-370.9975"
       transform="matrix(4.8062288e-4,0.99999988,-0.99985621,0.01695753,0,0)" />
    <rect
       style="fill:#00b800;stroke:#14191f;stroke-width:8.39157;stroke-linecap:round;stroke-miterlimit:4;stroke-dasharray:none;stroke-opacity:0.910387"
       id="rect31-8-2-1"
       width="116.09458"
       height="116.69427"
       x="147.24132"
       y="-488.01303"
       transform="matrix(4.8062288e-4,0.99999988,-0.99985621,0.01695753,0,0)" />
    <rect
       style="fill:#ccfc14;stroke:#14191f;stroke-width:8.39157;stroke-linecap:round;stroke-miterlimit:4;stroke-dasharray:none;stroke-opacity:0.910387"
       id="rect31-4"
       width="116.09458"
       height="116.69427"
       x="262.40588"
       y="-137.28772"
       transform="matrix(4.8062288e-4,0.99999988,-0.99985621,0.01695753,0,0)" />
    <rect
       style="fill:#00b800;stroke:#14191f;stroke-width:8.39157;stroke-linecap:round;stroke-miterlimit:4;stroke-dasharray:none;stroke-opacity:0.910387"
       id="rect31-8-6"
       width="116.09458"
       height="116.69427"
       x="262.87085"
       y="-254.30331"
       transform="matrix(4.8062288e-4,0.99999988,-0.99985621,0.01695753,0,0)" />
    <rect
       style="fill:#dcfc6c;stroke:#14191f;stroke-width:8.39157;stroke-linecap:round;stroke-miterlimit:4;stroke-dasharray:none;stroke-opacity:0.910387"
       id="rect31-0-2"
       width="116.09458"
       height="116.69427"
       x="262.87085"
       y="-370.9975"
       transform="matrix(4.8062288e-4,0.99999988,-0.99985621,0.01695753,0,0)" />
    <rect
       style="fill:#008000;stroke:#14191f;stroke-width:8.39157;stroke-linecap:round;stroke-miterlimit:4;stroke-dasharray:none;stroke-opacity:0.910387"
       id="rect31-8-2-5"
       width="116.09458"
       height="116.69427"
       x="263.33582"
       y="-488.01303"
       transform="matrix(4.8062288e-4,0.99999988,-0.99985621,0.01695753,0,0)" />
    <rect
       style="fill:#007400;stroke:#14191f;stroke-width:8.39157;stroke-linecap:round;stroke-miterlimit:4;stroke-dasharray:none;stroke-opacity:0.910387"
       id="rect31-1-8"
       width="116.09458"
       height="116.69427"
       x="378.03552"
       y="-136.96648"
       transform="matrix(4.8062288e-4,0.99999988,-0.99985621,0.01695753,0,0)" />
    <rect
       style="fill:#d4fc44;stroke:#14191f;stroke-width:8.39157;stroke-linecap:round;stroke-miterlimit:4;stroke-dasharray:none;stroke-opacity:0.910387"
       id="rect31-8-0-6"
       width="116.09458"
       height="116.69427"
       x="378.50049"
       y="-253.98201"
       transform="matrix(4.8062288e-4,0.99999988,-0.99985621,0.01695753,0,0)" />
    <rect
       style="fill:#a0f000;stroke:#14191f;stroke-width:8.39157;stroke-linecap:round;stroke-miterlimit:4;stroke-dasharray:none;stroke-opacity:0.910387"
       id="rect31-0-5-2"
       width="116.09458"
       height="116.69427"
       x="378.50049"
       y="-370.67627"
       transform="matrix(4.8062288e-4,0.99999988,-0.99985621,0.01695753,0,0)" />
    <rect
       style="fill:#70e400;stroke:#14191f;stroke-width:8.39157;stroke-linecap:round;stroke-miterlimit:4;stroke-dasharray:none;stroke-opacity:0.910387"
       id="rect31-8-2-1-8"
       width="116.09458"
       height="116.69427"
       x="378.96545"
       y="-487.6918"
       transform="matrix(4.8062288e-4,0.99999988,-0.99985621,0.01695753,0,0)" />
  </g>
</svg>
